<?xml version="1.0" encoding="utf-8"?>
<!-- Generator: Adobe Illustrator 16.0.0, SVG Export Plug-In . SVG Version: 6.00 Build 0)  -->
<!DOCTYPE svg PUBLIC "-//W3C//DTD SVG 1.1//EN" "http://www.w3.org/Graphics/SVG/1.1/DTD/svg11.dtd">
<svg version="1.1" id="SHOPPING_CART" xmlns="http://www.w3.org/2000/svg" xmlns:xlink="http://www.w3.org/1999/xlink" x="0px"
	 y="0px" width="1800px" height="1800px" viewBox="0 0 1800 1800" enable-background="new 0 0 1800 1800" xml:space="preserve">
<g>
	<path fill="#333333" d="M1478.793,1242.979c0.031,0.006,0.061,0.006,0.094,0h3.281c13.289,0,25.162-8.314,29.709-20.8
		l283.908-780.039c3.529-9.694,2.104-20.5-3.811-28.951c-5.919-8.447-15.582-13.479-25.899-13.479H1194.88H883.583H334.239
		L263.73,208.149c-0.066-0.181-0.155-0.349-0.225-0.53c-0.238-0.609-0.494-1.204-0.768-1.791c-0.181-0.397-0.366-0.79-0.564-1.177
		c-0.255-0.499-0.524-0.984-0.807-1.465c-0.261-0.45-0.525-0.896-0.807-1.332c-0.251-0.384-0.516-0.758-0.781-1.129
		c-0.348-0.484-0.697-0.965-1.067-1.424c-0.247-0.309-0.507-0.609-0.763-0.904c-0.415-0.476-0.833-0.948-1.27-1.398
		c-0.274-0.278-0.561-0.542-0.843-0.812c-0.446-0.423-0.887-0.838-1.354-1.235c-0.335-0.282-0.688-0.551-1.032-0.821
		c-0.437-0.334-0.874-0.675-1.323-0.987c-0.423-0.296-0.86-0.569-1.297-0.842c-0.401-0.251-0.803-0.503-1.212-0.736
		c-0.508-0.287-1.028-0.547-1.549-0.807c-0.375-0.186-0.745-0.375-1.129-0.543c-0.555-0.247-1.121-0.468-1.693-0.688
		c-0.384-0.145-0.768-0.291-1.156-0.423c-0.555-0.186-1.111-0.344-1.675-0.499c-0.451-0.124-0.9-0.242-1.35-0.348
		c-0.507-0.115-1.015-0.208-1.53-0.3c-0.542-0.093-1.089-0.181-1.641-0.248c-0.441-0.052-0.882-0.097-1.328-0.128
		c-0.635-0.052-1.271-0.083-1.905-0.097c-0.203-0.004-0.397-0.031-0.601-0.031H33.923c-17.461,0-31.615,14.153-31.615,31.615
		c0,17.461,14.154,31.615,31.615,31.615h178.083L300.272,490.5l255.975,703.281c-0.123,0.308-0.273,0.604-0.393,0.921
		l-86.934,236.188c-0.542,1.473-0.93,2.965-1.243,4.46c-1.821,3.996-2.862,8.42-2.862,13.095c0,17.461,14.154,31.616,31.615,31.616
		h123.754c11.622,74.937,76.572,132.486,154.716,132.486c78.143,0,143.094-57.55,154.716-132.486h217.104
		c11.621,74.937,76.574,132.486,154.717,132.486c78.144,0,143.093-57.55,154.716-132.486h87.688
		c17.463,0,31.615-14.155,31.615-31.616c0-17.462-14.152-31.615-31.615-31.615h-90.789
		c-17.421-67.456-78.792-117.429-151.614-117.429c-72.824,0-134.194,49.973-151.616,117.429H926.521
		c-17.432-67.456-78.8-117.429-151.62-117.429c-72.819,0-134.189,49.973-151.62,117.429h-81.803l63.989-173.85H1478.793z
		 M1216.813,1416.829c14.844-31.941,47.146-54.197,84.624-54.197c37.477,0,69.78,22.256,84.622,54.197
		c5.539,11.921,8.72,25.153,8.72,39.145c0,8.341-1.205,16.386-3.264,24.087c-10.665,39.81-46.952,69.256-90.078,69.256
		c-43.128,0-79.414-29.446-90.077-69.256c-2.061-7.701-3.265-15.746-3.265-24.087
		C1208.096,1441.982,1211.274,1428.75,1216.813,1416.829z M690.278,1416.829c14.838-31.941,47.146-54.197,84.623-54.197
		c37.477,0,69.785,22.256,84.622,54.197c5.541,11.921,8.72,25.153,8.72,39.145c0,8.341-1.203,16.386-3.267,24.087
		c-10.661,39.81-46.947,69.256-90.075,69.256c-43.126,0-79.414-29.446-90.074-69.256c-2.064-7.701-3.268-15.746-3.268-24.087
		C681.559,1441.982,684.739,1428.75,690.278,1416.829z M644.822,1179.748h-26.389l-20.453-56.187l-49.751-136.69h255.596v192.877
		H644.822z M1553.244,923.641h-289.426V723.412h362.303L1553.244,923.641z M1200.588,923.641H867.055V723.412h333.533V923.641z
		 M803.825,923.641H525.214l-72.876-200.229h351.487V923.641z M867.055,1179.748V986.871h333.533v192.877H867.055z
		 M1480.479,1123.562l-20.449,56.187h-26.389h-169.822V986.871h266.412L1480.479,1123.562z M1649.132,660.181h-385.313V462.942
		h457.104L1649.132,660.181z M905.72,462.942h267.024h27.844v197.239H867.055V462.942H905.72z M357.535,462.942h446.29v197.239
		H429.327l-69.625-191.293c-0.005-0.004-0.005-0.004-0.005-0.004l-0.04-0.11L357.535,462.942z"/>
</g>
<g>
</g>
<g>
</g>
<g>
</g>
<g>
</g>
<g>
</g>
<g>
</g>
</svg>
